<svg xmlns="http://www.w3.org/2000/svg" width="36.914" height="30" viewBox="0 0 36.914 30">
  <path id="twitter" d="M11.609,30c13.93,0,21.548-11.541,21.548-21.548q0-.492-.021-.979a15.4,15.4,0,0,0,3.778-3.922,15.1,15.1,0,0,1-4.349,1.192A7.6,7.6,0,0,0,35.895.554a15.189,15.189,0,0,1-4.809,1.838A7.58,7.58,0,0,0,18.18,9.3,21.5,21.5,0,0,1,2.569,1.386,7.58,7.58,0,0,0,4.914,11.5a7.517,7.517,0,0,1-3.43-.947c0,.032,0,.063,0,.1a7.575,7.575,0,0,0,6.076,7.424,7.559,7.559,0,0,1-3.42.13,7.581,7.581,0,0,0,7.075,5.26A15.193,15.193,0,0,1,1.807,26.7,15.382,15.382,0,0,1,0,26.6,21.438,21.438,0,0,0,11.609,30" fill="#fff"/>
</svg>
