<svg xmlns="http://www.w3.org/2000/svg" width="42.847" height="30" viewBox="0 0 42.847 30">
  <path id="Path_7" data-name="Path 7" d="M528.229,31.548h0a5.37,5.37,0,0,0-3.777-3.776c-3.353-.918-16.765-.918-16.765-.918s-13.411,0-16.764.883a5.48,5.48,0,0,0-3.777,3.812c-.883,3.353-.883,10.306-.883,10.306s0,6.988.883,10.306a5.369,5.369,0,0,0,3.777,3.776c3.388.917,16.764.917,16.764.917s13.412,0,16.765-.883a5.369,5.369,0,0,0,3.776-3.776c.882-3.353.882-10.306.882-10.306S529.147,34.9,528.229,31.548Zm-24.812,16.73V35.43l11.153,6.424Z" transform="translate(-486.264 -26.854)" fill="#fff"/>
</svg>
